<svg width="251" height="193" viewBox="0 0 251 193" fill="none" xmlns="http://www.w3.org/2000/svg">
<rect x="3" y="14.8405" width="106.198" height="175.16" rx="5" stroke="#54656F" stroke-width="6"/>
<path d="M55.2009 54.4804C53.0212 54.3867 51.2809 53.6542 49.9802 52.2831C48.6794 50.9003 48.029 49.2187 48.029 47.2382C48.029 47.1327 48.0348 46.9687 48.0466 46.746H51.2458C51.4216 49.6757 52.7399 51.3046 55.2009 51.6327V43.5468C50.736 42.6679 48.5036 40.4062 48.5036 36.7617C48.5036 34.8163 49.0954 33.2226 50.279 31.9804C51.4743 30.7382 53.1149 30.0292 55.2009 29.8534V28.746H57.8552V29.8534C59.402 30.0058 60.779 30.6034 61.986 31.6464C63.2048 32.6894 63.8141 34.5292 63.8141 37.1659V37.5878H60.7204C60.7204 36.0878 60.4977 34.9745 60.0524 34.248C59.6071 33.5097 58.8747 33.0234 57.8552 32.789V40.5937C60.6677 41.121 62.5485 41.9355 63.4977 43.037C64.4469 44.1269 64.9216 45.5097 64.9216 47.1855C64.9216 49.3183 64.3063 51.0117 63.0759 52.2656C61.8454 53.5077 60.1052 54.246 57.8552 54.4804V57.205H55.2009V54.4804ZM55.2009 39.996V32.6484C53.0798 33.0234 52.0192 34.2245 52.0192 36.2519C52.0192 38.1738 53.0798 39.4218 55.2009 39.996ZM57.8552 44.1093V51.5976C60.3161 51.1406 61.5466 49.8339 61.5466 47.6777C61.5466 46.7988 61.3063 46.0605 60.8259 45.4628C60.3454 44.8652 59.3552 44.414 57.8552 44.1093Z" fill="#54656F"/>
<line x1="21.977" y1="86.9877" x2="92.5346" y2="86.9877" stroke="#54656F" stroke-width="6"/>
<line x1="21.977" y1="108.301" x2="31.2304" y2="108.301" stroke="#54656F" stroke-width="6"/>
<line x1="32.3871" y1="108.301" x2="92.5346" y2="108.301" stroke="#54656F" stroke-width="6"/>
<line x1="32.3871" y1="128.429" x2="92.5346" y2="128.429" stroke="#54656F" stroke-width="6"/>
<rect x="20.3502" y="153.374" width="73.8111" height="16.4969" rx="7" stroke="#54656F" stroke-width="6"/>
<rect x="141.802" y="14.8405" width="106.198" height="175.16" rx="5" stroke="#54656F" stroke-width="6"/>
<path d="M194.003 54.4804C191.823 54.3867 190.083 53.6542 188.782 52.2831C187.481 50.9003 186.831 49.2187 186.831 47.2382C186.831 47.1327 186.837 46.9687 186.848 46.746H190.048C190.223 49.6757 191.542 51.3046 194.003 51.6327V43.5468C189.538 42.6679 187.305 40.4062 187.305 36.7617C187.305 34.8163 187.897 33.2226 189.081 31.9804C190.276 30.7382 191.917 30.0292 194.003 29.8534V28.746H196.657V29.8534C198.204 30.0058 199.581 30.6034 200.788 31.6464C202.007 32.6894 202.616 34.5292 202.616 37.1659V37.5878H199.522C199.522 36.0878 199.3 34.9745 198.854 34.248C198.409 33.5097 197.677 33.0234 196.657 32.789V40.5937C199.469 41.121 201.35 41.9355 202.3 43.037C203.249 44.1269 203.723 45.5097 203.723 47.1855C203.723 49.3183 203.108 51.0117 201.878 52.2656C200.647 53.5077 198.907 54.246 196.657 54.4804V57.205H194.003V54.4804ZM194.003 39.996V32.6484C191.882 33.0234 190.821 34.2245 190.821 36.2519C190.821 38.1738 191.882 39.4218 194.003 39.996ZM196.657 44.1093V51.5976C199.118 51.1406 200.348 49.8339 200.348 47.6777C200.348 46.7988 200.108 46.0605 199.628 45.4628C199.147 44.8652 198.157 44.414 196.657 44.1093Z" fill="#54656F"/>
<line x1="160.779" y1="86.9877" x2="231.336" y2="86.9877" stroke="#54656F" stroke-width="6"/>
<line x1="160.779" y1="108.301" x2="170.032" y2="108.301" stroke="#54656F" stroke-width="6"/>
<line x1="171.189" y1="108.301" x2="231.336" y2="108.301" stroke="#54656F" stroke-width="6"/>
<line x1="171.189" y1="128.429" x2="231.336" y2="128.429" stroke="#54656F" stroke-width="6"/>
<rect x="159.152" y="153.374" width="73.8111" height="16.4969" rx="7" stroke="#54656F" stroke-width="6"/>
<rect x="74.7143" y="3" width="106.198" height="175.16" rx="5" stroke="#54656F" stroke-width="6"/>
<path d="M126.915 42.6399C124.735 42.5462 122.995 41.8137 121.694 40.4426C120.394 39.0598 119.743 37.3782 119.743 35.3977C119.743 35.2923 119.749 35.1282 119.761 34.9055H122.96C123.136 37.8352 124.454 39.4641 126.915 39.7923V31.7063C122.45 30.8274 120.218 28.5657 120.218 24.9212C120.218 22.9758 120.81 21.3821 121.993 20.1399C123.189 18.8977 124.829 18.1887 126.915 18.013V16.9055H129.569V18.013C131.116 18.1653 132.493 18.763 133.7 19.8059C134.919 20.8489 135.528 22.6887 135.528 25.3255V25.7473H132.435C132.435 24.2473 132.212 23.134 131.767 22.4075C131.321 21.6692 130.589 21.1829 129.569 20.9485V28.7532C132.382 29.2805 134.263 30.095 135.212 31.1965C136.161 32.2864 136.636 33.6692 136.636 35.345C136.636 37.4778 136.021 39.1712 134.79 40.4251C133.56 41.6673 131.819 42.4055 129.569 42.6399V45.3645H126.915V42.6399ZM126.915 28.1555V20.8079C124.794 21.1829 123.734 22.384 123.734 24.4114C123.734 26.3333 124.794 27.5813 126.915 28.1555ZM129.569 32.2688V39.7571C132.03 39.3001 133.261 37.9934 133.261 35.8372C133.261 34.9583 133.021 34.22 132.54 33.6223C132.06 33.0247 131.069 32.5735 129.569 32.2688Z" fill="#54656F"/>
<line x1="93.6913" y1="76.1472" x2="164.249" y2="76.1472" stroke="#54656F" stroke-width="4"/>
<line x1="93.6913" y1="97.4601" x2="102.945" y2="97.4601" stroke="#54656F" stroke-width="4"/>
<line x1="104.101" y1="97.4601" x2="164.249" y2="97.4601" stroke="#54656F" stroke-width="4"/>
<line x1="104.101" y1="117.589" x2="164.249" y2="117.589" stroke="#54656F" stroke-width="4"/>
<rect x="91.0645" y="140.534" width="75.8111" height="18.4969" rx="8" stroke="#54656F" stroke-width="4"/>
</svg>
